<?xml version="1.0" standalone="no"?>
<!DOCTYPE svg PUBLIC "-//W3C//DTD SVG 20010904//EN"
 "http://www.w3.org/TR/2001/REC-SVG-20010904/DTD/svg10.dtd">
<svg version="1.0" xmlns="http://www.w3.org/2000/svg"
 width="500.000000pt" height="500.000000pt" viewBox="0 0 500.000000 500.000000"
 preserveAspectRatio="xMidYMid meet">
<metadata>
Created by potrace 1.11, written by Peter Selinger 2001-2013
</metadata>
<g transform="translate(0.000000,500.000000) scale(0.100000,-0.100000)"
fill="#000000" stroke="none">
<path d="M1035 4961 c-3 -2 -21 -6 -40 -8 -19 -2 -48 -8 -63 -14 -15 -6 -29
-10 -31 -9 -2 1 -7 -2 -10 -7 -3 -4 -37 -24 -76 -43 -67 -33 -171 -124 -196
-172 -9 -17 -4 -15 27 8 22 16 41 31 44 35 5 6 36 20 55 25 6 1 29 9 53 18 23
8 42 13 42 10 0 -2 8 -1 18 5 26 13 97 23 193 26 47 1 90 5 96 8 6 4 13 4 16
0 4 -3 37 -7 74 -8 37 -2 86 -6 108 -10 22 -5 48 -8 58 -9 9 0 17 -3 17 -7 0
-4 15 -10 33 -14 17 -4 37 -9 42 -11 6 -2 17 -5 25 -7 8 -2 33 -12 55 -22 22
-10 47 -18 55 -17 11 2 9 -2 -4 -13 -11 -8 -24 -15 -30 -15 -14 0 -170 -73
-177 -83 -3 -4 -37 -24 -75 -43 -79 -41 -167 -95 -172 -106 -2 -5 -10 -8 -18
-8 -8 0 -14 -4 -14 -10 0 -5 -6 -10 -14 -10 -8 0 -17 -7 -20 -16 -4 -9 -9 -15
-12 -12 -6 7 -70 -53 -67 -63 2 -5 -3 -6 -10 -3 -7 2 -25 -6 -41 -18 -45 -35
-276 -262 -276 -271 0 -4 -11 -20 -25 -35 -14 -15 -25 -32 -25 -39 0 -7 -8
-17 -17 -22 -10 -6 -14 -11 -9 -11 5 0 3 -7 -4 -15 -7 -8 -9 -15 -5 -15 4 0
-4 -12 -19 -26 -14 -15 -26 -33 -26 -40 0 -8 -3 -14 -8 -14 -4 0 -14 -15 -21
-32 -8 -18 -25 -43 -38 -55 -12 -13 -20 -29 -17 -36 2 -7 -7 -30 -21 -51 -14
-20 -25 -43 -25 -50 0 -8 -7 -19 -15 -26 -8 -7 -13 -16 -10 -20 3 -5 0 -12 -6
-15 -5 -4 -8 -13 -5 -21 3 -7 1 -16 -4 -19 -6 -4 -10 -17 -10 -30 0 -13 -5
-27 -10 -30 -6 -4 -8 -11 -5 -16 4 -5 2 -9 -2 -9 -5 0 -10 -9 -11 -20 -1 -11
-3 -29 -4 -40 -1 -11 -6 -20 -10 -20 -4 0 -8 -6 -8 -14 0 -8 -5 -27 -12 -43
-6 -15 -12 -30 -13 -33 -2 -6 -19 -103 -20 -112 0 -3 -3 -9 -7 -13 -4 -4 -4
-13 -2 -20 3 -7 1 -16 -5 -20 -6 -3 -11 -13 -11 -21 0 -8 -9 -33 -19 -55 -12
-24 -15 -36 -7 -30 10 9 15 8 20 -4 3 -8 2 -15 -3 -15 -4 0 -8 -6 -8 -12 0
-25 -14 -112 -19 -119 -12 -21 -21 -408 -13 -589 0 -19 -2 -53 -6 -75 -4 -22
-8 -55 -9 -72 0 -18 -4 -33 -8 -33 -5 0 -8 -17 -8 -38 0 -21 -3 -42 -7 -45 -6
-6 -11 -56 -16 -154 -1 -24 -5 -43 -8 -43 -3 0 -6 -6 -6 -12 0 -17 -11 -138
-19 -208 -4 -30 -7 -92 -8 -137 0 -46 -3 -83 -6 -83 -3 0 -5 -26 -4 -57 0 -38
-5 -64 -14 -75 -8 -10 -11 -18 -5 -18 9 0 13 -13 14 -52 0 -10 5 -18 10 -18 6
0 7 -6 2 -12 -11 -18 -12 -188 -1 -188 5 0 4 -8 -1 -19 -6 -10 -8 -21 -4 -24
3 -3 7 -30 8 -59 3 -68 32 -251 49 -313 22 -80 32 -109 58 -162 72 -148 224
-232 336 -187 34 14 72 5 72 -16 0 -6 5 -10 11 -10 8 0 9 4 0 13 -6 8 -8 17
-4 20 3 4 1 7 -6 7 -8 0 -11 8 -8 19 4 16 -3 19 -42 24 -25 3 -59 11 -76 18
-16 7 -35 13 -42 15 -7 1 -27 12 -45 25 -29 20 -50 40 -121 119 -7 8 -24 33
-37 55 -13 22 -27 42 -30 45 -11 8 -39 92 -45 135 -20 132 -26 395 -10 395 6
0 6 3 -1 8 -12 8 -25 52 -16 52 4 0 8 57 9 128 1 132 10 280 18 292 2 4 7 38
10 76 7 79 9 100 21 169 4 28 8 57 9 65 1 8 4 24 7 35 4 11 10 38 13 60 4 22
9 51 12 65 3 14 6 34 7 45 4 34 17 65 26 65 5 0 9 -26 8 -57 -1 -53 7 -168 12
-168 2 0 3 -16 4 -35 2 -19 5 -48 9 -65 3 -16 9 -47 12 -69 3 -21 8 -43 11
-48 3 -5 8 -24 11 -41 6 -41 37 -141 59 -192 10 -22 19 -49 21 -60 2 -10 7
-22 11 -25 4 -3 17 -24 30 -47 23 -43 24 -60 8 -183 -21 -154 -21 -247 0 -420
5 -36 8 -69 9 -75 0 -5 4 -16 8 -23 5 -6 5 -12 0 -12 -4 0 -2 -4 6 -9 14 -9
17 -35 20 -133 1 -16 5 -28 10 -28 5 0 8 13 6 30 -4 27 -2 28 15 18 10 -7 17
-15 14 -20 -10 -15 25 -74 70 -120 51 -52 123 -98 155 -101 12 -1 21 -5 21
-10 0 -5 6 -7 14 -4 8 3 17 3 21 -1 6 -7 10 -8 35 -11 20 -2 -5 -121 -35 -167
-15 -24 -15 -24 23 -24 36 0 41 3 68 53 16 28 31 61 34 72 7 24 36 32 38 10 1
-8 3 -22 4 -30 1 -8 5 -15 10 -15 4 0 8 -6 8 -14 0 -8 12 -28 26 -45 l26 -31
1949 0 1949 0 -2 366 c-3 315 -5 368 -18 374 -8 4 -25 12 -37 18 -13 7 -29 12
-37 12 -8 0 -28 11 -44 25 -24 20 -31 22 -36 10 -7 -20 -52 -18 -95 3 l-34 17
-1 88 c-1 52 -5 91 -12 95 -6 4 -10 15 -8 25 1 9 -2 17 -7 17 -9 0 -29 39 -35
67 -4 20 -41 67 -65 83 -12 8 -36 27 -53 43 -17 15 -34 27 -39 27 -4 0 -20 11
-34 25 -26 24 -26 25 -8 45 10 11 14 20 10 20 -5 0 -2 6 7 13 9 6 29 37 46 68
25 49 33 68 47 122 2 4 3 8 5 10 3 4 9 40 12 70 1 15 7 27 14 27 7 0 10 -15 8
-42 -8 -120 -14 -161 -25 -195 -7 -21 -14 -42 -14 -48 -3 -23 -39 -95 -47 -95
-5 0 -6 -5 -2 -12 5 -8 10 -7 18 4 6 8 21 20 34 27 12 7 20 17 16 23 -4 6 -3
8 2 5 12 -7 23 1 44 27 13 18 13 19 0 11 -8 -4 -5 2 8 14 28 28 55 69 59 90
13 79 19 96 37 96 10 0 24 -9 30 -20 15 -27 33 -45 44 -45 5 0 15 -6 21 -14 7
-8 23 -13 37 -11 13 1 27 -1 29 -5 4 -7 37 -7 114 -1 24 2 2 15 -27 16 -15 0
-42 8 -59 18 -34 18 -93 71 -93 84 0 3 -9 16 -20 28 l-20 22 35 59 c20 32 38
70 42 84 3 14 11 34 16 45 11 19 15 33 21 65 6 29 19 75 24 84 3 6 6 19 8 30
1 12 5 55 9 96 9 86 10 286 2 345 -4 22 -13 70 -21 106 -8 36 -17 77 -20 90
-2 13 -17 62 -32 109 -15 47 -28 87 -29 90 -1 3 -9 22 -18 44 -9 21 -17 42
-17 46 0 5 -11 30 -24 57 -13 26 -37 74 -52 106 -51 103 -66 132 -73 137 -3 3
-17 26 -30 53 -13 26 -28 47 -33 47 -4 0 -8 6 -8 13 0 7 -9 18 -20 25 -11 7
-20 17 -20 23 0 11 -60 92 -72 97 -5 2 -8 8 -8 13 0 9 -26 41 -90 110 -129
139 -168 188 -219 275 -32 55 -73 114 -89 132 -17 18 -28 32 -25 32 7 0 -39
62 -72 96 -41 43 -55 61 -55 72 0 5 -15 21 -34 36 -52 39 -67 57 -59 69 4 7 0
8 -11 4 -13 -5 -17 -3 -13 7 7 17 -16 40 -27 28 -4 -4 -6 -2 -4 3 1 6 -7 23
-19 39 -13 16 -23 25 -23 21 0 -4 -13 4 -29 17 -16 12 -45 37 -66 53 -20 17
-40 30 -43 30 -4 0 -23 12 -42 26 -112 84 -420 228 -500 234 -14 1 -38 8 -55
15 -16 8 -37 15 -45 16 -46 5 -93 15 -101 20 -5 3 -9 0 -9 -7 0 -8 -3 -9 -13
0 -8 6 -17 8 -21 4 -4 -4 -11 -1 -16 7 -6 10 -31 15 -82 17 -220 8 -298 7
-302 -2 -3 -5 -5 -5 -5 2 -1 7 -7 10 -13 8 -14 -5 -77 -14 -143 -19 -41 -4
-124 -15 -160 -21 -83 -15 -220 -47 -225 -53 -3 -4 -14 -8 -25 -10 -49 -6 -61
-9 -70 -14 -6 -3 -24 -9 -42 -12 -26 -6 -32 -4 -38 13 -3 12 -11 21 -16 21
-11 0 -70 40 -81 55 -5 7 -8 7 -8 0 0 -5 -4 -5 -8 2 -4 6 -40 28 -80 48 -67
33 -100 45 -142 49 -8 0 -17 4 -20 7 -12 15 -262 33 -275 20z m3360 -1545 c8
-7 11 -16 8 -20 -4 -3 -2 -6 4 -6 6 0 23 -24 38 -52 29 -55 74 -120 88 -126 4
-2 7 -10 7 -19 0 -8 6 -21 13 -28 24 -28 32 -41 57 -90 14 -27 28 -52 31 -55
3 -3 9 -15 13 -27 4 -13 11 -23 16 -23 5 0 7 -7 4 -15 -4 -8 -2 -15 4 -15 6 0
16 -16 22 -35 6 -19 16 -35 21 -35 5 0 9 -8 9 -18 0 -10 4 -22 8 -28 5 -5 21
-40 37 -79 16 -38 31 -72 34 -75 3 -3 7 -14 8 -25 1 -11 13 -58 28 -105 15
-47 28 -92 29 -100 1 -9 6 -22 10 -29 13 -20 17 -219 5 -226 -5 -4 -7 -11 -3
-16 3 -5 -4 -39 -15 -74 -12 -35 -21 -73 -21 -84 0 -11 -5 -23 -10 -26 -6 -4
-8 -11 -5 -16 4 -5 -1 -12 -9 -15 -18 -7 -22 -44 -5 -44 6 0 4 -7 -5 -15 -8
-8 -19 -15 -25 -15 -6 0 -11 -5 -11 -10 0 -16 -49 -90 -60 -90 -5 0 -20 37
-33 83 -22 73 -25 98 -22 232 2 119 -15 360 -24 360 -5 0 -12 44 -17 100 -7
97 -9 110 -17 116 -4 3 -9 29 -12 58 -3 29 -7 57 -10 62 -4 5 -8 17 -10 26 -3
10 -12 43 -21 73 -23 81 -31 109 -49 175 -8 33 -19 67 -24 76 -6 9 -13 34 -17
55 -3 22 -9 44 -13 49 -3 6 -6 15 -7 20 -1 8 -51 117 -72 158 -6 12 9 8 23 -7z
m-3731 -2728 c-4 -14 -2 -18 5 -14 6 4 11 1 11 -7 0 -8 7 -27 14 -43 8 -15 12
-32 9 -37 -3 -5 -1 -12 4 -16 6 -3 23 -31 38 -61 15 -30 36 -62 46 -71 11 -9
19 -20 19 -25 0 -5 14 -20 31 -34 52 -42 66 -59 64 -83 -1 -12 -5 -21 -9 -21
-3 1 -23 5 -42 9 -20 3 -34 9 -31 12 3 3 -3 14 -14 26 -10 11 -19 27 -19 34 0
8 -4 11 -10 8 -5 -3 -10 1 -10 9 0 9 -3 16 -8 16 -8 0 -38 61 -34 73 1 4 -2 7
-7 7 -5 0 -19 34 -32 75 -12 41 -26 75 -29 75 -4 0 -6 10 -5 23 1 12 -2 30 -7
40 -10 20 -2 40 13 31 5 -3 7 -15 3 -26z m812 -278 c20 0 17 -29 -2 -37 -20
-7 -73 52 -74 81 0 17 5 15 31 -12 17 -18 38 -32 45 -32z m-294 -256 c28 -14
29 -17 15 -31 -13 -14 -18 -14 -29 -2 -15 15 -30 49 -22 49 3 0 19 -7 36 -16z"/>
<path d="M2075 4900 c-3 -5 -1 -10 4 -10 6 0 11 5 11 10 0 6 -2 10 -4 10 -3 0
-8 -4 -11 -10z"/>
<path d="M1980 4878 c0 -11 22 -10 39 1 10 7 7 9 -12 8 -15 -1 -27 -5 -27 -9z"/>
<path d="M1925 4870 c-4 -6 -10 -8 -15 -5 -4 3 -19 1 -32 -5 -21 -8 -20 -9 10
-7 19 1 36 5 38 9 3 5 10 5 16 2 7 -4 8 -2 4 4 -9 15 -13 15 -21 2z"/>
<path d="M1797 4838 c-7 -5 0 -6 17 -4 16 3 31 7 33 10 8 8 -37 2 -50 -6z"/>
<path d="M1745 4819 c-3 -4 2 -6 10 -5 21 3 28 13 10 13 -9 0 -18 -4 -20 -8z"/>
<path d="M224 2969 c-3 -6 -2 -15 3 -20 5 -5 9 -1 9 11 0 23 -2 24 -12 9z"/>
<path d="M207 2933 c-10 -9 -9 -23 1 -23 5 0 9 7 9 15 0 17 -1 18 -10 8z"/>
<path d="M190 2870 c0 -5 5 -10 11 -10 5 0 7 5 4 10 -3 6 -8 10 -11 10 -2 0
-4 -4 -4 -10z"/>
<path d="M176 2834 c-8 -20 -8 -24 2 -24 4 0 8 9 9 20 2 24 -3 26 -11 4z"/>
<path d="M150 2749 c0 -5 5 -7 10 -4 6 3 10 8 10 11 0 2 -4 4 -10 4 -5 0 -10
-5 -10 -11z"/>
<path d="M139 2693 c-13 -16 -12 -17 4 -4 9 7 17 15 17 17 0 8 -8 3 -21 -13z"/>
<path d="M129 2667 c-1 -4 -2 -10 -3 -14 -1 -5 -4 -12 -7 -18 -17 -28 -18 -45
-3 -45 9 0 14 8 13 18 -1 9 1 25 6 35 4 10 5 21 1 24 -3 4 -7 3 -7 0z"/>
<path d="M103 2563 c-3 -10 -8 -22 -11 -27 -3 -5 1 -7 8 -4 8 2 14 14 15 26 2
26 -3 28 -12 5z"/>
<path d="M87 2513 c-2 -5 -3 -16 -2 -25 2 -10 0 -18 -4 -18 -4 0 -8 -13 -9
-30 -1 -16 2 -30 8 -30 5 0 11 14 11 30 2 38 3 43 12 57 4 6 3 14 -2 17 -5 4
-12 3 -14 -1z"/>
<path d="M55 2354 c-3 -25 -9 -56 -12 -67 -3 -12 -6 -40 -7 -63 -2 -22 -5 -45
-8 -50 -3 -5 -5 -25 -5 -44 0 -19 -3 -45 -7 -57 -10 -31 -11 -388 -1 -492 6
-75 9 -83 21 -66 7 10 10 23 7 29 -4 6 -8 20 -10 31 -5 41 -5 464 0 492 4 15
9 55 12 88 4 33 9 71 11 85 3 14 7 41 9 60 2 19 7 50 9 68 3 17 2 32 -3 32 -5
0 -12 -21 -16 -46z"/>
<path d="M39 1489 c-6 -17 -4 -66 2 -74 4 -5 7 -12 7 -15 -1 -3 5 -35 12 -72
9 -44 17 -65 26 -61 13 5 7 43 -8 43 -5 0 -7 4 -4 8 3 4 0 26 -5 48 -6 21 -12
57 -14 78 -4 34 -12 58 -16 45z"/>
<path d="M555 360 c-3 -5 -1 -10 4 -10 6 0 11 5 11 10 0 6 -2 10 -4 10 -3 0
-8 -4 -11 -10z"/>
<path d="M560 331 c0 -6 4 -13 10 -16 6 -3 7 1 4 9 -7 18 -14 21 -14 7z"/>
<path d="M587 259 c7 -7 15 -10 18 -7 3 3 -2 9 -12 12 -14 6 -15 5 -6 -5z"/>
<path d="M660 124 c8 -10 15 -20 16 -22 1 -2 5 1 8 7 4 5 -4 15 -16 22 -22 12
-22 11 -8 -7z"/>
<path d="M716 62 c-3 -5 1 -9 9 -9 8 0 12 4 9 9 -3 4 -7 8 -9 8 -2 0 -6 -4 -9
-8z"/>
<path d="M765 10 c3 -5 8 -10 11 -10 2 0 4 5 4 10 0 6 -5 10 -11 10 -5 0 -7
-4 -4 -10z"/>
</g>
</svg>
